 <svg
            width="12"
            height="12"
            viewBox="0 0 12 12"
            fill="none"
            xmlns="http://www.w3.org/2000/svg"
          >
            <path
              d="M11.3789 2.06641L7.16016 6.28516L11.3438 10.4687C11.6953 10.7852 11.6953 11.3125 11.3438 11.6289C11.0273 11.9805 10.5 11.9805 10.1836 11.6289L5.96484 7.44531L1.78125 11.6289C1.46484 11.9805 0.9375 11.9805 0.621094 11.6289C0.269531 11.3125 0.269531 10.7852 0.621094 10.4336L4.80469 6.25L0.621094 2.06641C0.269531 1.75 0.269531 1.22266 0.621094 0.871094C0.9375 0.554687 1.46484 0.554687 1.81641 0.871094L6 5.08984L10.1836 0.90625C10.5 0.554687 11.0273 0.554687 11.3789 0.90625C11.6953 1.22266 11.6953 1.75 11.3789 2.06641Z"
              fill="white"
            />
          </svg>