 <svg
            width="16"
            height="16"
            viewBox="0 0 16 16"
            fill="none"
            xmlns="http://www.w3.org/2000/svg"
          >
            <path
              d="M9.21875 5.71875L13.4375 1.5L10.75 1.5C10.3125 1.5 10 1.1875 10 0.75C10 0.34375 10.3125 0 10.75 0L15.2188 0C15.6562 0 15.9688 0.34375 15.9688 0.75V5.25C15.9688 5.6875 15.6563 6 15.2188 6C14.8125 6 14.4688 5.6875 14.4688 5.25V2.5625L10.25 6.78125C9.96875 7.09375 9.5 7.09375 9.21875 6.78125C8.90625 6.5 8.90625 6.03125 9.21875 5.71875ZM6.78125 10.2812L2.53125 14.5H5.25C5.65625 14.5 6 14.8437 6 15.25C6 15.6875 5.65625 16 5.25 16H0.75C0.3125 16 0 15.6875 0 15.25L0 10.75C0 10.3438 0.3125 10 0.75 10C1.15625 10 1.5 10.3438 1.5 10.75L1.5 13.4688L5.71875 9.25C6 8.9375 6.46875 8.9375 6.78125 9.25C7.0625 9.53125 7.0625 10 6.78125 10.2812Z"
              fill="white"
            />
          </svg>