 <svg
            width="32"
            height="32"
            viewBox="0 0 32 32"
            fill="none"
            xmlns="http://www.w3.org/2000/svg"
          >
            <path
              d="M32 16C32 7.16129 24.8387 0 16 0C7.16129 0 0 7.16129 0 16C0 24.8387 7.16129 32 16 32C24.8387 32 32 24.8387 32 16ZM16 29.9355C8.34194 29.9355 2.06452 23.7355 2.06452 16C2.06452 8.34194 8.26452 2.06452 16 2.06452C23.6581 2.06452 29.9355 8.26452 29.9355 16C29.9355 23.6581 23.7355 29.9355 16 29.9355ZM10.4129 15.4516L17.8387 8.03226C18.1419 7.72903 18.6323 7.72903 18.9355 8.03226L19.3935 8.49032C19.6968 8.79355 19.6968 9.28387 19.3935 9.5871L12.9677 16L19.3871 22.4194C19.6903 22.7226 19.6903 23.2129 19.3871 23.5161L18.929 23.9742C18.6258 24.2774 18.1355 24.2774 17.8323 23.9742L10.4065 16.5548C10.1097 16.2452 10.1097 15.7548 10.4129 15.4516V15.4516Z"
              fill="#afafaf"
            />
          </svg>