<svg
        width="46"
        height="47"
        viewBox="0 0 46 47"
        fill="none"
        xmlns="http://www.w3.org/2000/svg"
      >
        <path
          d="M0 23.75C0 11.082 10.2422 0.75 23 0.75C35.668 0.75 46 11.082 46 23.75C46 36.5078 35.668 46.75 23 46.75C10.2422 46.75 0 36.5078 0 23.75ZM15.7227 19.5273L19.9453 23.75L15.7227 27.9727C14.8242 28.8711 14.8242 30.2188 15.7227 31.0273C16.5312 31.9258 17.8789 31.9258 18.6875 31.0273L22.9102 26.8047L27.2227 31.0273C28.0312 31.9258 29.3789 31.9258 30.1875 31.0273C31.0859 30.2188 31.0859 28.8711 30.1875 27.9727L25.9648 23.75L30.1875 19.5273C31.0859 18.7188 31.0859 17.3711 30.1875 16.4727C29.3789 15.6641 28.0312 15.6641 27.2227 16.4727L22.9102 20.7852L18.6875 16.4727C17.8789 15.6641 16.5312 15.6641 15.7227 16.4727C14.8242 17.3711 14.8242 18.7188 15.7227 19.5273Z"
          fill="#000000"
        />
      </svg>